<svg id="svg" version="1.1" xmlns="http://www.w3.org/2000/svg" xmlns:xlink="http://www.w3.org/1999/xlink" width="400" height="400" viewBox="0, 0, 400,400"><g id="svgg"><path id="path0" d="M183.000 46.237 C 180.303 46.879,177.893 47.769,177.048 48.434 C 176.512 48.855,175.832 49.206,175.537 49.214 C 174.205 49.249,169.200 53.516,169.200 54.617 C 169.200 54.901,169.065 55.193,168.900 55.267 C 167.469 55.903,165.600 61.544,165.600 65.229 C 165.600 65.442,168.470 65.600,172.357 65.600 C 179.490 65.600,179.600 65.571,179.600 63.702 C 179.600 62.771,181.891 59.364,183.011 58.630 C 186.906 56.078,191.683 56.648,195.069 60.070 L 197.389 62.415 197.380 65.507 L 197.371 68.600 195.206 71.298 C 194.015 72.782,192.671 74.111,192.220 74.251 C 191.769 74.391,190.836 75.081,190.146 75.785 C 189.457 76.489,188.287 77.353,187.546 77.705 C 186.806 78.057,185.884 78.883,185.497 79.540 C 185.110 80.197,184.280 81.166,183.653 81.694 C 182.207 82.911,181.282 86.888,181.116 92.600 L 181.000 96.600 186.769 96.711 C 193.245 96.836,193.178 96.864,193.203 94.000 C 193.223 91.711,193.832 89.056,194.379 88.874 C 194.610 88.797,194.800 88.480,194.800 88.171 C 194.800 87.568,199.421 82.800,200.007 82.800 C 200.200 82.800,200.844 82.350,201.438 81.800 C 202.031 81.250,202.841 80.800,203.238 80.800 C 203.635 80.800,204.438 80.173,205.022 79.406 C 205.607 78.640,206.696 77.635,207.443 77.174 C 208.189 76.712,208.800 76.076,208.800 75.759 C 208.800 75.443,209.210 74.513,209.710 73.692 C 212.552 69.036,212.828 62.465,210.396 57.400 C 209.158 54.821,205.159 50.000,204.258 50.000 C 204.061 50.000,202.820 49.451,201.500 48.781 C 197.070 46.530,196.174 46.331,189.800 46.184 C 186.500 46.108,183.440 46.132,183.000 46.237 M97.200 186.400 L 97.200 305.600 115.400 305.600 L 133.600 305.600 133.600 186.400 L 133.600 67.200 115.400 67.200 L 97.200 67.200 97.200 186.400 M262.000 198.400 L 262.000 305.600 280.400 305.600 L 298.800 305.600 298.800 198.400 L 298.800 91.200 280.400 91.200 L 262.000 91.200 262.000 198.400 M184.671 103.209 C 178.326 105.621,177.102 114.908,182.798 117.420 C 183.569 117.760,184.513 118.210,184.895 118.419 C 187.248 119.709,192.185 117.746,193.850 114.858 C 196.389 110.454,194.647 105.644,189.688 103.369 C 187.238 102.245,187.211 102.244,184.671 103.209 M206.000 212.000 L 206.000 305.600 224.400 305.600 L 242.800 305.600 242.800 212.000 L 242.800 118.400 224.400 118.400 L 206.000 118.400 206.000 212.000 M154.000 231.000 L 154.000 305.600 171.400 305.600 L 188.800 305.600 188.800 231.000 L 188.800 156.400 171.400 156.400 L 154.000 156.400 154.000 231.000 M164.788 325.806 C 161.847 326.303,159.931 327.128,157.433 328.972 C 156.755 329.472,155.893 329.990,155.517 330.122 C 155.141 330.254,154.401 331.048,153.871 331.887 C 153.342 332.726,152.611 333.659,152.247 333.961 C 149.316 336.394,148.152 346.904,149.918 355.000 C 150.625 358.242,155.047 363.779,157.923 365.024 C 158.735 365.376,160.300 366.089,161.400 366.609 C 166.371 368.958,177.479 369.278,181.295 367.182 C 181.677 366.972,182.331 366.800,182.749 366.800 C 183.167 366.800,184.024 366.531,184.654 366.202 C 185.284 365.874,186.169 365.604,186.620 365.602 C 188.318 365.597,188.400 365.106,188.400 354.913 L 188.400 345.186 178.900 345.293 L 169.400 345.400 169.400 349.000 L 169.400 352.600 173.400 352.800 L 177.400 353.000 177.400 357.000 L 177.400 361.000 174.600 361.127 C 171.400 361.271,166.622 360.036,165.600 358.800 C 165.490 358.667,164.717 358.142,163.881 357.635 C 162.178 356.599,161.264 354.887,160.181 350.704 C 159.226 347.014,159.532 343.697,161.282 338.754 C 163.577 332.274,176.335 330.597,183.775 335.797 C 187.801 338.611,188.000 338.491,188.000 333.229 L 188.000 328.859 185.900 327.671 C 182.029 325.481,171.971 324.593,164.788 325.806 M208.291 326.242 C 208.131 326.402,208.000 335.773,208.000 347.067 L 208.000 367.600 212.991 367.600 L 217.982 367.600 218.091 360.300 L 218.200 353.000 221.261 352.884 C 224.372 352.766,226.000 353.690,226.000 355.574 C 226.000 355.822,226.720 356.687,227.600 357.496 C 228.480 358.305,229.200 359.156,229.200 359.386 C 229.200 359.617,230.021 360.794,231.024 362.003 C 232.027 363.211,233.305 364.965,233.862 365.900 L 234.876 367.600 241.438 367.600 C 245.047 367.600,248.000 367.547,248.000 367.482 C 248.000 367.418,247.280 366.592,246.400 365.649 C 245.520 364.705,244.800 363.694,244.800 363.402 C 244.800 363.110,244.215 362.379,243.500 361.778 C 242.786 361.176,241.863 360.125,241.451 359.442 C 241.039 358.759,240.049 357.447,239.251 356.527 C 234.889 351.496,233.992 349.548,235.756 348.933 C 242.226 346.678,244.843 332.973,239.443 329.624 C 238.759 329.200,237.831 328.526,237.380 328.127 C 235.195 326.192,235.311 326.207,221.591 326.076 C 214.436 326.007,208.451 326.082,208.291 326.242 M226.924 333.290 C 231.691 334.275,233.175 338.791,230.034 342.757 C 228.480 344.719,226.531 345.279,221.800 345.120 L 218.200 345.000 218.085 339.600 C 217.934 332.448,219.037 331.661,226.924 333.290 " stroke="none" fill="#fbfbfb" fill-rule="evenodd"></path><path id="path1" d="M0.000 200.000 L 0.000 400.000 200.000 400.000 L 400.000 400.000 400.000 200.000 L 400.000 0.000 200.000 0.000 L 0.000 0.000 0.000 200.000 M193.758 45.391 C 195.936 45.702,197.907 46.147,198.138 46.378 C 198.370 46.610,198.912 46.800,199.342 46.800 C 199.772 46.800,200.714 47.250,201.436 47.800 C 202.157 48.350,203.132 48.800,203.602 48.800 C 204.787 48.800,210.400 54.340,210.400 55.509 C 210.400 55.994,210.712 56.755,211.093 57.201 C 212.818 59.214,213.950 67.098,212.803 69.105 C 212.585 69.487,211.681 71.394,210.794 73.343 C 209.308 76.609,207.999 78.350,207.000 78.389 C 206.780 78.398,206.306 78.922,205.946 79.554 C 205.564 80.227,204.246 81.262,202.771 82.048 C 197.237 84.997,194.588 88.595,194.172 93.729 L 193.890 97.200 186.918 97.200 L 179.947 97.200 180.139 93.300 C 180.321 89.615,180.798 85.956,181.415 83.508 C 181.566 82.907,182.390 81.737,183.245 80.908 C 184.100 80.079,184.799 79.187,184.800 78.927 C 184.800 78.366,186.897 76.800,187.649 76.800 C 187.938 76.800,188.593 76.313,189.104 75.719 C 189.614 75.124,190.718 74.179,191.556 73.619 C 197.264 69.800,198.452 64.695,194.579 60.631 L 192.357 58.300 189.079 58.250 C 184.312 58.177,180.400 60.809,180.400 64.089 C 180.400 66.332,180.040 66.429,172.198 66.310 L 165.000 66.200 165.033 63.800 C 165.108 58.326,170.962 48.800,174.251 48.800 C 174.562 48.800,175.529 48.350,176.400 47.800 C 177.271 47.250,178.222 46.800,178.512 46.800 C 178.802 46.800,179.231 46.609,179.464 46.376 C 180.682 45.158,188.404 44.626,193.758 45.391 M134.200 186.600 L 134.200 306.200 115.600 306.200 L 97.000 306.200 96.899 186.496 L 96.799 66.792 115.499 66.896 L 134.200 67.000 134.200 186.600 M299.101 198.500 L 299.000 306.200 280.446 306.304 C 267.079 306.379,261.739 306.281,261.346 305.955 C 260.762 305.471,260.485 91.649,261.067 91.067 C 261.213 90.920,269.854 90.800,280.267 90.800 L 299.201 90.800 299.101 198.500 M190.323 102.637 C 192.519 103.850,194.400 105.529,194.400 106.275 C 194.400 106.564,194.580 106.800,194.800 106.800 C 195.020 106.800,195.200 107.139,195.200 107.554 C 195.200 107.969,195.464 108.817,195.786 109.439 C 196.768 111.332,194.431 116.881,192.200 117.953 C 191.540 118.270,190.687 118.681,190.305 118.865 C 189.329 119.336,184.099 119.284,183.800 118.800 C 183.664 118.580,183.233 118.400,182.843 118.400 C 180.507 118.400,176.592 110.117,178.400 109.000 C 178.620 108.864,178.800 108.399,178.800 107.966 C 178.800 107.533,179.385 106.523,180.100 105.722 C 183.707 101.680,186.865 100.727,190.323 102.637 M243.000 212.000 L 243.000 306.200 224.446 306.304 C 211.079 306.379,205.739 306.281,205.346 305.955 C 204.584 305.323,204.523 118.837,205.284 118.076 C 205.652 117.708,210.238 117.617,224.384 117.696 L 243.000 117.800 243.000 212.000 M189.367 155.843 C 190.338 156.215,190.338 305.785,189.367 306.157 C 188.073 306.654,153.788 306.428,153.280 305.920 C 152.582 305.222,152.582 156.778,153.280 156.080 C 153.788 155.572,188.073 155.346,189.367 155.843 M183.000 325.471 C 183.880 325.696,185.590 326.434,186.800 327.111 L 189.000 328.341 189.113 333.039 C 189.234 338.055,189.119 338.382,187.235 338.394 C 186.314 338.400,183.098 336.625,181.400 335.175 C 180.621 334.509,177.628 333.757,174.019 333.322 C 169.250 332.746,163.077 335.988,161.961 339.654 C 160.375 344.861,159.901 348.844,160.800 349.400 C 161.020 349.536,161.200 350.252,161.200 350.991 C 161.200 351.730,161.453 352.845,161.763 353.468 C 162.073 354.090,162.553 355.095,162.831 355.700 C 163.108 356.305,163.633 356.800,163.998 356.800 C 164.362 356.800,165.083 357.250,165.600 357.800 C 166.117 358.350,166.868 358.800,167.270 358.800 C 167.671 358.800,168.000 358.980,168.000 359.200 C 168.000 359.420,168.495 359.601,169.100 359.602 C 169.705 359.604,170.716 359.874,171.346 360.202 C 171.976 360.531,173.461 360.800,174.646 360.800 L 176.800 360.800 176.800 357.000 L 176.800 353.200 172.800 353.200 L 168.800 353.200 168.800 349.000 L 168.800 344.800 179.000 344.800 L 189.200 344.800 189.200 355.186 C 189.200 366.628,189.252 366.400,186.650 366.400 C 186.098 366.400,185.536 366.580,185.400 366.800 C 185.264 367.020,184.555 367.200,183.825 367.200 C 183.095 367.200,182.274 367.470,182.000 367.800 C 181.726 368.130,180.905 368.400,180.175 368.400 C 179.445 368.400,178.736 368.580,178.600 368.800 C 178.451 369.040,175.737 369.200,171.800 369.200 C 167.863 369.200,165.149 369.040,165.000 368.800 C 164.864 368.580,164.296 368.400,163.738 368.400 C 162.737 368.400,160.326 367.284,160.067 366.700 C 159.993 366.535,159.538 366.400,159.056 366.400 C 155.509 366.400,149.440 358.421,148.710 352.800 C 147.566 343.987,149.072 334.936,151.985 333.116 C 152.433 332.836,152.800 332.387,152.800 332.117 C 152.800 331.461,155.488 328.800,156.151 328.800 C 156.440 328.800,157.003 328.439,157.403 327.997 C 158.257 327.053,159.971 326.115,162.200 325.372 C 164.114 324.734,180.421 324.812,183.000 325.471 M232.523 325.258 C 234.105 325.510,235.684 325.960,236.031 326.258 C 236.379 326.556,236.846 326.800,237.070 326.800 C 237.293 326.800,237.819 327.181,238.238 327.646 C 238.657 328.111,239.405 328.647,239.900 328.836 C 240.968 329.244,242.396 331.440,242.399 332.676 C 242.399 333.158,242.580 333.664,242.800 333.800 C 243.290 334.103,243.338 341.068,242.853 341.368 C 242.661 341.486,242.396 342.266,242.262 343.102 C 241.998 344.754,238.516 348.706,236.327 349.838 L 235.188 350.427 236.594 351.875 C 237.367 352.671,238.000 353.477,238.000 353.665 C 238.000 353.853,238.990 355.084,240.200 356.400 C 241.410 357.716,242.400 359.052,242.400 359.369 C 242.400 359.686,242.939 360.330,243.598 360.799 C 244.258 361.268,245.265 362.451,245.838 363.428 C 246.410 364.405,247.086 365.338,247.339 365.502 C 250.812 367.748,249.539 368.388,241.600 368.388 C 234.137 368.388,234.726 368.581,232.612 365.442 C 231.738 364.146,230.523 362.585,229.912 361.973 C 229.300 361.362,228.800 360.599,228.800 360.277 C 228.800 359.956,228.125 359.079,227.300 358.329 C 226.475 357.579,225.538 356.433,225.217 355.783 C 224.103 353.521,223.621 353.200,221.338 353.200 L 219.200 353.200 219.200 360.557 C 219.200 366.897,219.113 367.948,218.567 368.157 C 217.498 368.568,208.396 368.426,207.574 367.986 C 206.494 367.408,206.351 327.219,207.423 325.689 C 208.150 324.650,226.707 324.332,232.523 325.258 M219.467 334.267 C 219.320 334.413,219.200 336.843,219.200 339.667 L 219.200 344.800 222.100 344.787 C 224.014 344.779,225.264 344.575,225.776 344.187 C 226.204 343.864,227.014 343.593,227.576 343.585 C 232.082 343.518,231.520 334.882,226.969 334.258 C 224.511 333.921,219.807 333.926,219.467 334.267 " stroke="none" fill="#040404" fill-rule="evenodd"></path><path id="path2" d="M96.985 67.300 C 96.881 67.575,96.842 121.350,96.898 186.800 L 97.001 305.800 97.101 186.504 L 97.200 67.208 115.500 67.100 L 133.800 66.992 115.487 66.896 C 101.134 66.821,97.134 66.908,96.985 67.300 M280.399 91.098 L 298.799 91.208 298.900 198.304 L 299.002 305.400 299.001 198.200 L 299.000 91.000 280.500 90.994 L 262.000 90.988 280.399 91.098 M261.298 198.476 C 261.244 257.368,261.335 305.636,261.500 305.738 C 261.771 305.906,261.770 233.933,261.498 130.200 C 261.442 108.860,261.352 139.584,261.298 198.476 M205.467 118.267 C 205.096 118.637,205.129 305.509,205.500 305.738 C 205.665 305.840,205.800 263.641,205.800 211.962 C 205.800 160.283,205.785 118.000,205.767 118.000 C 205.748 118.000,205.613 118.120,205.467 118.267 M242.997 212.000 C 242.997 263.590,243.043 284.695,243.100 258.900 C 243.157 233.105,243.157 190.895,243.100 165.100 C 243.043 139.305,242.997 160.410,242.997 212.000 M186.105 119.087 C 186.714 119.179,187.614 119.177,188.105 119.082 C 188.597 118.987,188.100 118.911,187.000 118.914 C 185.900 118.917,185.497 118.995,186.105 119.087 M153.467 156.267 C 153.096 156.637,153.129 305.509,153.500 305.738 C 153.665 305.840,153.800 272.191,153.800 230.962 C 153.800 189.733,153.785 156.000,153.767 156.000 C 153.748 156.000,153.613 156.120,153.467 156.267 M169.900 325.096 C 171.275 325.174,173.525 325.174,174.900 325.096 C 176.275 325.018,175.150 324.954,172.400 324.954 C 169.650 324.954,168.525 325.018,169.900 325.096 M213.700 325.499 C 216.725 325.567,221.675 325.567,224.700 325.499 C 227.725 325.431,225.250 325.375,219.200 325.375 C 213.150 325.375,210.675 325.431,213.700 325.499 M172.500 333.087 C 173.105 333.178,174.095 333.178,174.700 333.087 C 175.305 332.995,174.810 332.920,173.600 332.920 C 172.390 332.920,171.895 332.995,172.500 333.087 M218.555 339.400 C 218.556 342.260,218.620 343.378,218.697 341.883 C 218.774 340.389,218.774 338.049,218.696 336.683 C 218.618 335.318,218.555 336.540,218.555 339.400 M174.323 345.099 C 177.031 345.168,181.351 345.168,183.923 345.099 C 186.495 345.029,184.280 344.972,179.000 344.973 C 173.720 344.973,171.615 345.030,174.323 345.099 M220.700 345.089 C 221.415 345.178,222.585 345.178,223.300 345.089 C 224.015 345.001,223.430 344.928,222.000 344.928 C 220.570 344.928,219.985 345.001,220.700 345.089 M168.942 349.000 C 168.941 350.980,169.008 351.840,169.092 350.912 C 169.176 349.984,169.177 348.364,169.095 347.312 C 169.012 346.260,168.943 347.020,168.942 349.000 M148.893 351.600 C 148.893 352.370,148.975 352.685,149.076 352.300 C 149.176 351.915,149.176 351.285,149.076 350.900 C 148.975 350.515,148.893 350.830,148.893 351.600 M171.312 353.095 C 172.364 353.177,173.984 353.176,174.912 353.092 C 175.840 353.008,174.980 352.941,173.000 352.942 C 171.020 352.943,170.260 353.012,171.312 353.095 M220.300 353.082 C 220.795 353.178,221.605 353.178,222.100 353.082 C 222.595 352.987,222.190 352.909,221.200 352.909 C 220.210 352.909,219.805 352.987,220.300 353.082 M218.399 360.681 C 218.290 364.685,218.339 367.822,218.510 367.651 C 218.680 367.480,218.770 364.204,218.709 360.370 L 218.598 353.400 218.399 360.681 M173.300 361.087 C 173.905 361.178,174.895 361.178,175.500 361.087 C 176.105 360.995,175.610 360.920,174.400 360.920 C 173.190 360.920,172.695 360.995,173.300 361.087 M169.500 369.095 C 170.655 369.176,172.545 369.176,173.700 369.095 C 174.855 369.014,173.910 368.948,171.600 368.948 C 169.290 368.948,168.345 369.014,169.500 369.095 " stroke="none" fill="#7c7c7c" fill-rule="evenodd"></path><path id="path3" d="M185.200 45.200 C 184.318 45.386,185.651 45.496,188.800 45.497 C 192.529 45.499,193.343 45.418,192.000 45.180 C 189.825 44.793,187.097 44.801,185.200 45.200 M180.100 46.012 C 179.605 46.211,179.200 46.489,179.200 46.630 C 179.200 46.771,179.515 46.752,179.900 46.589 C 180.285 46.426,181.230 46.157,182.000 45.992 C 183.367 45.699,183.372 45.692,182.200 45.671 C 181.540 45.660,180.595 45.813,180.100 46.012 M194.705 45.883 C 195.202 45.979,195.922 45.975,196.305 45.875 C 196.687 45.775,196.280 45.696,195.400 45.701 C 194.520 45.705,194.207 45.787,194.705 45.883 M176.481 47.681 C 175.756 48.129,175.238 48.571,175.331 48.664 C 175.508 48.842,178.400 47.236,178.400 46.960 C 178.400 46.646,177.781 46.878,176.481 47.681 M199.972 47.427 C 200.727 47.754,201.546 48.152,201.791 48.311 C 202.037 48.470,201.779 48.196,201.219 47.702 C 200.659 47.208,199.840 46.810,199.400 46.818 C 198.842 46.827,199.016 47.012,199.972 47.427 M171.632 50.647 C 167.356 54.491,165.099 58.991,165.033 63.800 L 165.000 66.200 172.170 66.310 C 176.114 66.370,179.481 66.280,179.651 66.110 C 179.822 65.939,176.640 65.853,172.581 65.917 L 165.200 66.034 165.226 64.317 C 165.308 58.817,169.057 52.284,173.832 49.324 C 174.254 49.061,174.394 48.836,174.143 48.824 C 173.892 48.811,172.762 49.631,171.632 50.647 M203.872 49.385 C 205.501 50.093,209.893 54.539,210.119 55.708 C 210.281 56.548,210.294 56.543,210.346 55.614 C 210.419 54.292,204.904 48.792,203.529 48.816 C 202.713 48.829,202.755 48.899,203.872 49.385 M211.008 57.400 C 213.058 62.761,213.335 66.185,212.000 69.696 C 210.946 72.471,211.020 72.649,212.221 70.225 C 213.844 66.952,213.354 60.235,211.285 57.400 L 210.702 56.600 211.008 57.400 M185.663 57.977 C 184.357 58.306,183.025 59.200,183.840 59.200 C 184.060 59.200,184.465 58.975,184.740 58.700 C 185.801 57.640,192.268 58.122,193.314 59.339 C 193.815 59.923,194.364 60.400,194.533 60.400 C 194.702 60.400,194.336 59.871,193.720 59.224 C 192.477 57.918,188.399 57.287,185.663 57.977 M182.000 60.400 C 181.530 61.060,181.236 61.600,181.346 61.600 C 181.456 61.600,181.930 61.060,182.400 60.400 C 182.870 59.740,183.164 59.200,183.054 59.200 C 182.944 59.200,182.470 59.740,182.000 60.400 M196.901 65.400 C 196.905 66.280,196.987 66.593,197.083 66.095 C 197.179 65.598,197.175 64.878,197.075 64.495 C 196.975 64.113,196.896 64.520,196.901 65.400 M133.901 186.428 L 134.003 306.016 115.421 305.908 C 105.201 305.849,96.977 305.937,97.144 306.104 C 97.311 306.271,105.717 306.361,115.824 306.304 L 134.200 306.200 134.301 186.821 C 134.356 121.162,134.266 67.306,134.101 67.141 C 133.935 66.975,133.846 120.654,133.901 186.428 M194.761 70.500 C 193.849 71.655,192.413 73.058,191.570 73.617 C 190.083 74.604,188.398 76.276,188.402 76.761 C 188.403 76.893,188.952 76.415,189.623 75.700 C 190.293 74.984,191.343 74.140,191.955 73.823 C 192.568 73.506,193.584 72.562,194.213 71.724 C 194.843 70.886,195.457 70.110,195.579 70.000 C 196.132 69.500,196.874 68.400,196.658 68.400 C 196.526 68.400,195.673 69.345,194.761 70.500 M209.853 74.597 C 208.420 77.625,208.558 77.982,210.022 75.032 C 210.668 73.729,211.131 72.598,211.052 72.518 C 210.972 72.438,210.432 73.374,209.853 74.597 M185.900 77.646 C 185.295 78.097,184.800 78.664,184.800 78.904 C 184.800 79.145,184.149 79.996,183.354 80.796 C 181.789 82.370,180.788 84.692,180.852 86.600 C 180.878 87.364,180.953 87.509,181.059 87.000 C 181.806 83.417,182.280 82.452,184.541 79.916 C 185.857 78.441,187.219 77.156,187.567 77.063 C 188.087 76.923,188.093 76.887,187.600 76.859 C 187.270 76.841,186.505 77.195,185.900 77.646 M207.175 77.828 C 206.612 78.127,205.897 78.845,205.587 79.424 C 205.278 80.002,204.177 80.905,203.141 81.430 C 202.104 81.955,201.154 82.551,201.029 82.754 C 200.903 82.957,201.814 82.574,203.052 81.903 C 204.291 81.232,205.596 80.171,205.952 79.544 C 206.308 78.918,206.803 78.404,207.051 78.403 C 207.299 78.401,207.726 78.130,208.000 77.800 C 208.578 77.103,208.540 77.105,207.175 77.828 M198.485 84.620 C 197.572 85.401,196.443 86.616,195.975 87.320 L 195.124 88.600 196.262 87.321 C 196.888 86.617,198.110 85.402,198.978 84.621 C 201.028 82.776,200.641 82.775,198.485 84.620 M180.249 89.415 C 180.112 89.773,180.027 91.266,180.060 92.733 L 180.121 95.400 180.400 92.200 C 180.692 88.854,180.664 88.335,180.249 89.415 M194.414 89.574 C 194.186 89.999,194.024 91.034,194.053 91.874 L 194.107 93.400 194.364 91.600 C 194.505 90.610,194.762 89.575,194.934 89.300 C 195.106 89.025,195.153 88.800,195.038 88.800 C 194.922 88.800,194.642 89.148,194.414 89.574 M261.067 91.067 C 260.543 91.590,260.756 305.396,261.280 305.920 C 261.824 306.464,298.605 306.639,298.938 306.100 C 299.040 305.935,290.636 305.800,280.262 305.800 L 261.400 305.800 261.299 198.842 C 261.225 120.109,261.317 91.741,261.648 91.342 C 262.095 90.803,261.576 90.557,261.067 91.067 M193.600 95.167 C 193.600 96.046,193.381 96.822,193.100 96.935 C 192.801 97.056,192.882 97.150,193.300 97.168 C 193.868 97.194,194.000 96.860,194.000 95.400 C 194.000 94.410,193.910 93.600,193.800 93.600 C 193.690 93.600,193.600 94.305,193.600 95.167 M187.200 101.893 C 187.970 101.983,188.771 102.224,188.980 102.429 C 189.189 102.633,189.549 102.794,189.780 102.787 C 190.011 102.780,189.851 102.510,189.424 102.187 C 188.996 101.864,188.006 101.629,187.224 101.664 L 185.800 101.728 187.200 101.893 M182.400 103.327 C 182.070 103.603,181.262 104.452,180.604 105.214 C 179.648 106.321,179.808 106.238,181.396 104.800 C 182.490 103.810,183.463 102.955,183.559 102.900 C 183.655 102.845,183.568 102.806,183.367 102.813 C 183.165 102.820,182.730 103.051,182.400 103.327 M190.990 103.324 C 191.425 103.586,192.370 104.367,193.090 105.060 C 193.811 105.753,194.400 106.172,194.400 105.991 C 194.400 105.528,191.146 102.795,190.628 102.824 C 190.393 102.836,190.556 103.061,190.990 103.324 M178.267 109.067 C 177.900 109.433,177.929 112.709,178.300 112.938 C 178.465 113.040,178.600 112.151,178.600 110.962 C 178.600 109.773,178.585 108.800,178.567 108.800 C 178.548 108.800,178.413 108.920,178.267 109.067 M195.565 109.700 C 195.840 110.429,195.849 111.146,195.590 111.826 C 195.084 113.158,195.097 113.463,195.638 112.922 C 196.252 112.308,196.262 109.701,195.654 109.099 C 195.249 108.698,195.231 108.816,195.565 109.700 M178.858 113.800 C 179.478 115.280,180.182 116.400,180.491 116.400 C 180.691 116.400,180.451 115.815,179.957 115.100 C 178.906 113.579,178.627 113.248,178.858 113.800 M194.006 115.297 C 193.545 116.279,192.770 117.269,192.284 117.498 C 191.798 117.726,190.770 118.199,190.000 118.548 C 189.230 118.896,188.827 119.186,189.105 119.191 C 189.383 119.196,189.923 119.049,190.305 118.865 C 190.687 118.681,191.540 118.269,192.200 117.950 C 193.308 117.415,195.486 114.153,195.035 113.702 C 194.931 113.598,194.468 114.315,194.006 115.297 M181.362 117.500 C 181.781 117.995,182.411 118.386,182.762 118.368 C 183.304 118.342,183.309 118.303,182.800 118.116 C 182.470 117.995,181.840 117.604,181.400 117.248 C 180.607 116.606,180.606 116.608,181.362 117.500 M205.280 118.080 C 204.581 118.779,204.581 305.221,205.280 305.920 C 205.824 306.464,242.605 306.639,242.938 306.100 C 243.040 305.935,234.636 305.800,224.262 305.800 L 205.400 305.800 205.400 212.000 L 205.400 118.200 224.262 118.200 C 234.636 118.200,243.040 118.065,242.938 117.900 C 242.605 117.361,205.824 117.536,205.280 118.080 M153.280 156.080 C 152.582 156.778,152.582 305.222,153.280 305.920 C 153.788 306.428,188.073 306.654,189.367 306.157 C 190.338 305.785,190.338 156.215,189.367 155.843 C 188.073 155.346,153.788 155.572,153.280 156.080 M189.400 231.000 L 189.400 305.800 171.400 305.800 L 153.400 305.800 153.297 231.400 C 153.241 190.480,153.281 156.773,153.386 156.496 C 153.537 156.099,157.373 156.014,171.489 156.096 L 189.400 156.200 189.400 231.000 M162.200 325.379 C 160.101 326.070,158.205 327.070,157.587 327.816 C 157.314 328.145,156.481 328.704,155.737 329.057 C 154.401 329.691,152.511 331.845,152.927 332.260 C 153.045 332.378,153.422 331.930,153.766 331.266 C 154.110 330.601,154.754 329.942,155.198 329.801 C 155.641 329.660,156.498 329.142,157.102 328.649 C 159.383 326.788,161.473 325.878,164.600 325.384 C 167.472 324.931,167.595 324.878,165.800 324.866 C 164.700 324.859,163.080 325.090,162.200 325.379 M179.000 325.190 C 183.178 325.858,184.205 326.163,186.371 327.381 L 188.600 328.634 188.600 333.217 L 188.600 337.800 187.510 337.926 C 186.742 338.014,185.559 337.485,183.510 336.136 C 180.949 334.450,177.833 333.244,176.000 333.229 C 174.730 333.219,176.576 333.897,178.600 334.184 C 179.700 334.341,180.960 334.781,181.400 335.163 C 183.053 336.599,186.305 338.400,187.235 338.394 C 189.119 338.382,189.234 338.055,189.113 333.039 L 189.000 328.341 186.800 327.111 C 184.298 325.712,182.361 325.172,179.200 324.994 L 177.000 324.870 179.000 325.190 M207.423 325.689 C 206.673 326.759,206.459 367.342,207.200 367.800 C 207.465 367.964,207.600 360.954,207.600 347.073 C 207.600 329.032,207.683 326.029,208.193 325.606 C 208.642 325.233,211.758 325.149,221.051 325.257 C 227.798 325.336,232.616 325.275,231.759 325.123 C 227.258 324.323,208.067 324.770,207.423 325.689 M234.400 325.893 C 234.950 325.994,235.670 326.284,236.000 326.538 C 236.522 326.940,236.529 326.909,236.051 326.300 C 235.748 325.914,235.030 325.624,234.451 325.654 L 233.400 325.709 234.400 325.893 M236.800 326.973 C 236.800 327.068,237.385 327.550,238.100 328.044 L 239.400 328.942 238.430 327.871 C 237.566 326.916,236.800 326.494,236.800 326.973 M240.484 329.710 C 241.080 330.272,241.676 331.242,241.808 331.866 C 241.940 332.490,242.217 333.313,242.424 333.695 C 242.910 334.592,242.912 340.086,242.428 341.281 C 242.223 341.787,241.944 342.716,241.808 343.347 C 241.511 344.729,237.446 349.052,236.135 349.381 C 235.621 349.510,235.200 349.796,235.200 350.018 C 235.200 351.860,241.913 345.287,242.262 343.102 C 242.396 342.266,242.661 341.486,242.853 341.368 C 243.338 341.068,243.290 334.103,242.800 333.800 C 242.580 333.664,242.400 333.140,242.400 332.636 C 242.400 331.555,240.861 329.143,240.000 328.875 C 239.670 328.772,239.888 329.148,240.484 329.710 M151.510 333.500 C 150.808 334.300,149.591 336.603,149.618 337.080 C 149.627 337.256,150.014 336.680,150.476 335.800 C 150.939 334.920,151.678 333.885,152.120 333.500 C 152.561 333.115,152.743 332.800,152.523 332.800 C 152.304 332.800,151.848 333.115,151.510 333.500 M167.800 333.811 C 166.920 334.101,166.560 334.339,167.000 334.339 C 167.440 334.339,168.520 334.101,169.400 333.811 C 170.280 333.521,170.640 333.284,170.200 333.284 C 169.760 333.284,168.680 333.521,167.800 333.811 M219.067 333.867 C 218.920 334.013,218.837 336.578,218.882 339.567 L 218.964 345.000 219.182 339.600 L 219.400 334.200 221.600 334.070 C 228.108 333.685,230.275 334.792,230.838 338.790 L 231.093 340.600 231.147 338.960 C 231.231 336.375,229.455 334.198,226.985 333.860 C 224.512 333.521,219.408 333.525,219.067 333.867 M163.698 336.500 C 162.475 337.353,160.804 340.538,161.313 341.046 C 161.439 341.172,161.732 340.583,161.965 339.738 C 162.224 338.798,162.972 337.694,163.890 336.900 C 165.634 335.390,165.547 335.210,163.698 336.500 M149.067 337.867 C 148.920 338.013,148.818 338.778,148.840 339.567 L 148.880 341.000 149.246 339.440 C 149.615 337.868,149.559 337.375,149.067 337.867 M229.504 342.195 C 228.862 343.186,228.303 343.592,227.576 343.595 C 226.578 343.600,224.531 344.762,225.476 344.787 C 225.738 344.794,226.064 344.620,226.200 344.400 C 226.336 344.180,226.953 344.000,227.570 344.000 C 228.438 344.000,228.935 343.635,229.753 342.400 C 230.335 341.520,230.720 340.800,230.609 340.800 C 230.498 340.800,230.001 341.428,229.504 342.195 M160.423 343.600 C 160.151 344.810,160.005 346.520,160.097 347.400 C 160.254 348.894,160.270 348.865,160.333 346.960 C 160.370 345.838,160.596 344.356,160.836 343.668 C 161.076 342.980,161.192 342.188,161.095 341.909 C 160.997 341.629,160.695 342.390,160.423 343.600 M148.243 343.433 C 147.902 344.321,147.951 349.304,148.306 349.862 C 148.468 350.116,148.600 348.631,148.600 346.562 C 148.600 342.490,148.601 342.499,148.243 343.433 M188.714 354.842 C 188.835 365.606,188.771 365.988,186.851 366.014 C 185.647 366.030,183.353 367.162,184.476 367.186 C 184.848 367.194,185.264 367.020,185.400 366.800 C 185.536 366.580,186.098 366.400,186.650 366.400 C 189.252 366.400,189.200 366.628,189.200 355.186 C 189.200 349.474,189.065 344.800,188.900 344.800 C 188.735 344.800,188.651 349.319,188.714 354.842 M160.640 350.266 C 161.008 351.799,161.200 351.944,161.200 350.690 C 161.200 350.117,161.013 349.532,160.784 349.390 C 160.511 349.221,160.462 349.523,160.640 350.266 M237.075 353.107 C 237.683 353.928,239.040 355.560,240.090 356.732 C 241.141 357.905,242.000 359.105,242.000 359.399 C 242.000 359.692,242.765 360.505,243.700 361.204 L 245.400 362.476 243.900 361.138 C 243.075 360.402,242.400 359.564,242.400 359.276 C 242.400 358.988,241.528 357.818,240.463 356.676 C 239.398 355.534,238.192 354.021,237.784 353.313 C 237.376 352.604,236.801 351.932,236.506 351.819 C 236.211 351.706,236.467 352.285,237.075 353.107 M148.864 353.800 C 148.859 355.934,150.740 359.465,153.339 362.200 C 153.966 362.860,153.469 362.011,152.233 360.313 C 150.657 358.146,149.820 356.535,149.427 354.913 C 149.049 353.351,148.866 352.990,148.864 353.800 M161.213 353.076 C 161.206 353.338,161.380 353.664,161.600 353.800 C 161.820 353.936,162.000 354.375,162.000 354.775 C 162.000 355.175,162.315 355.740,162.700 356.032 C 163.296 356.482,163.325 356.478,162.900 356.001 C 162.625 355.692,162.400 355.150,162.400 354.796 C 162.400 354.052,161.232 352.360,161.213 353.076 M218.795 360.400 L 218.600 367.800 213.200 368.018 L 207.800 368.236 213.000 368.312 C 219.795 368.411,219.240 369.132,219.104 360.371 L 218.990 353.000 218.795 360.400 M224.042 353.807 C 224.395 354.243,224.923 355.140,225.215 355.800 C 225.507 356.460,226.478 357.622,227.373 358.382 L 229.000 359.763 227.544 358.182 C 226.743 357.312,225.810 356.047,225.470 355.371 C 225.131 354.695,224.526 353.888,224.126 353.578 C 223.442 353.046,223.437 353.059,224.042 353.807 M176.942 357.000 C 176.941 358.980,177.008 359.840,177.092 358.912 C 177.176 357.984,177.177 356.364,177.095 355.312 C 177.012 354.260,176.943 355.020,176.942 357.000 M164.200 357.268 C 164.640 357.512,165.360 358.001,165.800 358.353 C 166.345 358.790,166.291 358.645,165.630 357.897 C 165.097 357.294,164.377 356.805,164.030 356.812 C 163.553 356.821,163.594 356.932,164.200 357.268 M169.400 359.957 C 170.060 360.146,170.960 360.440,171.400 360.609 C 172.004 360.842,172.094 360.802,171.765 360.444 C 171.526 360.184,170.626 359.891,169.765 359.792 C 168.363 359.632,168.325 359.650,169.400 359.957 M228.800 360.342 C 228.800 360.628,229.300 361.362,229.912 361.973 C 230.523 362.585,231.738 364.146,232.612 365.442 C 234.726 368.581,234.137 368.388,241.600 368.388 C 250.147 368.388,250.141 368.392,247.000 365.014 C 246.560 364.540,245.986 363.804,245.724 363.376 C 245.461 362.949,245.236 362.806,245.224 363.057 C 245.211 363.308,246.005 364.408,246.988 365.502 C 249.288 368.060,249.418 368.000,241.568 368.000 L 234.870 368.000 232.978 365.300 C 231.937 363.815,230.878 362.420,230.624 362.200 C 230.371 361.980,229.857 361.355,229.482 360.811 C 229.107 360.267,228.800 360.056,228.800 360.342 M157.000 365.600 C 157.660 366.037,158.560 366.375,159.000 366.351 L 159.800 366.307 159.000 366.106 C 158.560 365.995,157.845 365.655,157.411 365.352 C 156.977 365.048,156.437 364.801,156.211 364.803 C 155.985 364.804,156.340 365.163,157.000 365.600 M161.776 367.813 C 162.204 368.136,163.023 368.400,163.596 368.400 C 164.170 368.400,164.834 368.594,165.071 368.831 C 165.308 369.068,166.019 369.185,166.651 369.091 L 167.800 368.920 166.524 368.860 C 165.822 368.827,165.136 368.620,165.000 368.400 C 164.864 368.180,164.234 368.000,163.600 368.000 C 162.966 368.000,162.336 367.820,162.200 367.600 C 162.064 367.380,161.738 367.206,161.476 367.213 C 161.214 367.220,161.349 367.490,161.776 367.813 M181.826 367.558 C 181.705 367.755,180.929 368.012,180.103 368.131 C 179.276 368.250,177.880 368.518,177.000 368.727 L 175.400 369.108 176.876 369.154 C 177.688 369.179,178.464 369.020,178.600 368.800 C 178.736 368.580,179.445 368.400,180.175 368.400 C 180.905 368.400,181.726 368.130,182.000 367.800 C 182.274 367.470,182.397 367.200,182.273 367.200 C 182.149 367.200,181.948 367.361,181.826 367.558 " stroke="none" fill="#585858" fill-rule="evenodd"></path><path id="path4" d="M186.900 45.894 C 187.945 45.976,189.655 45.976,190.700 45.894 C 191.745 45.812,190.890 45.744,188.800 45.744 C 186.710 45.744,185.855 45.812,186.900 45.894 M180.200 46.652 C 179.205 47.138,179.171 47.195,180.000 46.984 C 180.550 46.845,181.630 46.587,182.400 46.411 C 183.772 46.098,183.776 46.092,182.600 46.078 C 181.940 46.071,180.860 46.329,180.200 46.652 M195.200 46.411 C 195.970 46.587,197.050 46.847,197.600 46.990 L 198.600 47.250 197.600 46.639 C 197.050 46.303,195.970 46.043,195.200 46.060 L 193.800 46.092 195.200 46.411 M200.341 48.205 C 201.298 48.752,202.198 49.194,202.341 49.188 C 202.755 49.168,199.443 47.204,199.000 47.207 C 198.780 47.208,199.383 47.657,200.341 48.205 M176.000 48.600 C 175.312 48.993,175.203 49.176,175.651 49.186 C 176.009 49.194,176.526 48.930,176.800 48.600 C 177.409 47.866,177.284 47.866,176.000 48.600 M203.649 49.732 C 205.078 50.369,208.638 53.877,209.379 55.378 C 209.710 56.050,209.986 56.358,209.991 56.062 C 210.016 54.591,204.705 49.168,203.304 49.232 C 202.802 49.256,202.902 49.399,203.649 49.732 M171.585 51.308 C 170.807 52.018,169.909 52.960,169.589 53.400 C 169.270 53.840,169.952 53.305,171.104 52.210 C 173.018 50.393,173.387 49.986,173.100 50.008 C 173.045 50.012,172.363 50.597,171.585 51.308 M166.800 57.601 C 166.309 58.290,166.018 59.184,166.118 59.701 C 166.291 60.597,166.291 60.597,166.346 59.662 C 166.375 59.146,166.772 58.201,167.227 57.562 C 167.682 56.923,167.964 56.400,167.854 56.400 C 167.744 56.400,167.270 56.940,166.800 57.601 M186.624 57.254 C 185.757 57.455,185.007 57.660,184.958 57.710 C 184.908 57.759,186.556 57.800,188.619 57.800 L 192.370 57.800 194.422 59.800 C 195.551 60.900,196.627 62.160,196.812 62.600 C 197.044 63.149,197.157 63.208,197.175 62.787 C 197.224 61.605,192.746 57.715,191.000 57.424 C 190.120 57.277,189.130 57.097,188.800 57.023 C 188.470 56.949,187.491 57.053,186.624 57.254 M182.313 59.319 C 180.898 60.740,179.779 62.740,179.413 64.500 L 179.185 65.600 172.364 65.600 L 165.542 65.600 165.765 63.300 C 165.958 61.306,165.932 61.178,165.571 62.343 C 165.342 63.081,165.210 64.161,165.278 64.743 L 165.400 65.800 172.390 65.800 L 179.381 65.800 179.733 64.600 C 180.545 61.836,181.755 60.049,183.800 58.594 C 184.240 58.282,184.381 58.020,184.113 58.013 C 183.846 58.006,183.036 58.594,182.313 59.319 M210.820 58.000 C 210.816 58.110,211.071 58.920,211.388 59.800 C 212.171 61.971,212.177 68.001,211.400 69.862 C 211.070 70.651,210.807 71.501,210.816 71.749 C 210.848 72.671,212.070 69.324,212.456 67.255 C 212.903 64.863,212.356 60.524,211.389 58.800 C 211.081 58.250,210.825 57.890,210.820 58.000 M197.309 65.600 C 197.309 66.590,197.387 66.995,197.482 66.500 C 197.578 66.005,197.578 65.195,197.482 64.700 C 197.387 64.205,197.309 64.610,197.309 65.600 M133.699 186.296 L 133.600 305.592 115.300 305.700 L 97.000 305.808 115.313 305.904 C 129.666 305.979,133.666 305.892,133.815 305.500 C 133.919 305.225,133.958 251.450,133.902 186.000 L 133.799 67.000 133.699 186.296 M196.800 68.551 C 196.800 68.854,196.522 69.333,196.181 69.615 C 195.841 69.898,195.188 70.685,194.730 71.364 C 194.203 72.147,194.497 71.940,195.532 70.800 C 196.968 69.218,197.607 68.000,197.000 68.000 C 196.890 68.000,196.800 68.248,196.800 68.551 M192.435 73.608 C 191.000 74.408,188.304 76.838,188.563 77.097 C 188.647 77.180,189.319 76.631,190.057 75.877 C 190.796 75.123,191.789 74.385,192.264 74.237 C 192.739 74.090,193.346 73.706,193.613 73.385 C 194.223 72.650,194.115 72.670,192.435 73.608 M209.285 74.413 C 209.018 74.840,208.800 75.447,208.800 75.762 C 208.800 76.077,208.189 76.712,207.443 77.174 C 206.696 77.635,205.607 78.640,205.022 79.406 C 204.438 80.173,203.653 80.804,203.280 80.809 C 202.906 80.814,202.150 81.171,201.600 81.604 C 200.654 82.347,200.709 82.344,202.630 81.545 C 203.825 81.048,204.977 80.219,205.430 79.531 C 205.854 78.888,206.790 77.993,207.511 77.542 C 208.232 77.090,209.090 76.081,209.416 75.299 C 210.085 73.699,210.017 73.241,209.285 74.413 M186.069 78.345 C 185.481 78.974,184.309 80.218,183.464 81.110 C 182.472 82.157,181.995 82.991,182.118 83.465 C 182.298 84.166,182.309 84.166,182.354 83.474 C 182.379 83.075,182.930 82.302,183.578 81.757 C 184.226 81.212,185.140 80.144,185.610 79.383 C 186.081 78.622,186.710 78.000,187.009 78.000 C 187.308 78.000,187.664 77.820,187.800 77.600 C 188.341 76.724,187.073 77.270,186.069 78.345 M197.800 84.639 C 196.700 85.646,196.069 86.326,196.398 86.151 C 196.727 85.975,197.463 85.416,198.034 84.907 C 198.605 84.398,199.416 83.722,199.836 83.404 C 200.256 83.086,200.420 82.821,200.200 82.816 C 199.980 82.811,198.900 83.631,197.800 84.639 M181.378 85.778 C 181.227 86.581,181.194 87.327,181.304 87.437 C 181.414 87.547,181.627 86.981,181.778 86.178 C 181.928 85.375,181.962 84.628,181.852 84.518 C 181.742 84.408,181.528 84.975,181.378 85.778 M180.659 90.900 C 179.881 97.377,179.698 97.200,187.184 97.200 C 193.648 97.200,193.410 97.350,193.717 93.076 C 193.841 91.358,194.157 89.693,194.420 89.376 C 194.704 89.033,194.733 88.800,194.492 88.800 C 193.905 88.800,193.602 89.807,193.361 92.567 C 192.950 97.270,193.627 96.837,186.890 96.711 L 181.000 96.600 181.130 92.700 C 181.272 88.433,181.055 87.603,180.659 90.900 M261.799 198.500 L 261.800 305.800 280.400 305.806 L 299.000 305.812 280.501 305.702 L 262.001 305.592 261.900 198.396 L 261.798 91.200 261.799 198.500 M185.010 102.639 C 182.432 103.582,182.485 104.012,185.069 103.119 L 187.434 102.301 189.186 103.148 C 190.150 103.613,191.024 103.909,191.129 103.804 C 192.099 102.835,187.084 101.879,185.010 102.639 M180.631 105.672 C 179.844 106.592,179.211 107.537,179.224 107.772 C 179.236 108.007,179.461 107.866,179.724 107.459 C 179.986 107.051,180.695 106.177,181.300 105.516 C 181.905 104.856,182.400 104.244,182.400 104.158 C 182.400 103.746,181.949 104.133,180.631 105.672 M191.600 104.125 C 191.600 104.194,192.185 104.779,192.900 105.425 L 194.200 106.600 193.025 105.300 C 191.930 104.088,191.600 103.816,191.600 104.125 M178.649 109.700 C 178.517 110.415,178.571 111.540,178.770 112.200 C 179.079 113.226,179.136 113.037,179.166 110.900 C 179.204 108.142,179.017 107.709,178.649 109.700 M194.970 110.759 C 194.991 112.964,195.044 113.144,195.355 112.059 C 195.575 111.289,195.566 110.294,195.331 109.500 C 194.992 108.356,194.949 108.506,194.970 110.759 M193.304 115.731 C 193.071 116.242,192.277 116.958,191.540 117.321 C 190.677 117.747,190.460 117.985,190.931 117.991 C 191.714 118.001,194.000 115.945,194.000 115.231 C 194.000 114.552,193.764 114.722,193.304 115.731 M181.824 117.387 C 182.251 117.710,182.870 117.979,183.200 117.985 C 183.530 117.990,183.284 117.726,182.654 117.398 C 181.195 116.637,180.825 116.632,181.824 117.387 M205.785 118.500 C 205.680 118.775,205.641 161.030,205.697 212.400 L 205.800 305.800 224.400 305.806 L 243.000 305.812 224.500 305.702 L 206.000 305.592 206.000 212.000 L 206.000 118.408 224.500 118.300 L 243.000 118.192 224.487 118.096 C 209.974 118.021,205.934 118.108,205.785 118.500 M153.786 156.496 C 153.681 156.773,153.641 190.480,153.697 231.400 L 153.800 305.800 171.600 305.800 L 189.400 305.800 189.400 231.000 L 189.400 156.200 171.689 156.096 C 157.734 156.014,153.937 156.099,153.786 156.496 M188.800 231.000 L 188.800 305.600 171.400 305.600 L 154.000 305.600 154.000 231.000 L 154.000 156.400 171.400 156.400 L 188.800 156.400 188.800 231.000 M163.319 325.620 C 161.440 325.991,159.813 326.747,160.156 327.089 C 160.280 327.213,160.642 327.097,160.961 326.833 C 161.280 326.568,162.949 326.114,164.670 325.824 C 166.392 325.535,167.170 325.295,166.400 325.293 C 165.630 325.290,164.243 325.437,163.319 325.620 M178.200 325.623 C 179.080 325.805,180.250 325.944,180.800 325.931 C 181.441 325.916,181.226 325.789,180.200 325.577 C 179.320 325.395,178.150 325.256,177.600 325.269 C 176.959 325.284,177.174 325.411,178.200 325.623 M207.797 326.500 C 207.677 326.995,207.628 336.490,207.689 347.600 L 207.800 367.800 213.000 367.800 L 218.200 367.800 218.305 360.800 C 218.397 354.705,218.501 353.731,219.105 353.264 C 219.751 352.766,219.744 352.738,219.000 352.869 C 218.239 353.003,218.195 353.368,218.091 360.305 L 217.982 367.600 212.987 367.600 L 207.993 367.600 208.096 346.900 L 208.200 326.200 220.400 325.991 L 232.600 325.782 220.308 325.691 L 208.015 325.600 207.797 326.500 M183.012 326.372 C 183.678 326.532,185.073 327.161,186.112 327.769 L 188.000 328.876 188.000 333.238 C 188.000 338.490,187.800 338.611,183.775 335.797 C 180.928 333.808,178.433 332.786,176.600 332.860 C 175.526 332.904,175.505 332.927,176.400 333.082 C 179.105 333.552,181.338 334.494,183.763 336.189 C 185.661 337.515,186.739 338.015,187.513 337.925 L 188.600 337.800 188.717 334.000 C 188.782 331.910,188.738 329.814,188.620 329.342 C 188.371 328.345,184.138 325.977,182.716 326.041 C 181.980 326.074,182.037 326.139,183.012 326.372 M234.000 326.288 C 234.550 326.387,235.171 326.632,235.380 326.834 C 235.589 327.035,235.938 327.200,236.156 327.200 C 236.375 327.200,236.204 326.936,235.776 326.613 C 235.349 326.290,234.550 326.044,234.000 326.067 L 233.000 326.109 234.000 326.288 M158.378 327.826 C 158.092 328.171,157.333 328.724,156.692 329.056 C 156.050 329.388,155.621 329.755,155.738 329.872 C 155.930 330.063,159.600 327.650,159.600 327.332 C 159.600 326.966,158.835 327.275,158.378 327.826 M236.801 327.464 C 236.801 327.649,237.684 328.401,238.762 329.136 C 241.305 330.869,242.635 334.431,242.300 338.606 C 242.184 340.058,242.248 341.094,242.446 340.971 C 243.906 340.069,242.034 331.012,240.110 329.670 C 239.582 329.301,238.621 328.579,237.975 328.064 C 237.329 327.550,236.800 327.280,236.801 327.464 M152.426 333.307 C 151.287 334.711,151.242 334.829,152.163 334.000 C 153.120 333.138,154.256 331.586,153.914 331.607 C 153.851 331.611,153.182 332.376,152.426 333.307 M167.384 333.348 C 165.702 333.973,161.734 337.484,161.273 338.754 C 160.431 341.072,159.882 343.216,160.080 343.413 C 160.195 343.529,160.512 342.763,160.783 341.711 C 161.632 338.422,161.964 337.849,164.110 335.974 C 166.054 334.275,167.753 333.536,170.800 333.064 C 171.350 332.979,171.080 332.906,170.200 332.902 C 169.320 332.898,168.053 333.099,167.384 333.348 M218.830 333.500 C 217.557 334.537,217.710 344.917,219.000 345.110 C 219.731 345.219,219.740 345.192,219.100 344.795 C 218.230 344.255,218.038 334.922,218.880 334.080 C 219.396 333.564,225.067 333.422,227.711 333.859 C 233.038 334.739,232.098 342.819,226.477 344.468 C 225.224 344.835,224.539 345.150,224.954 345.168 C 232.400 345.484,234.175 334.788,226.924 333.290 C 223.396 332.561,219.869 332.653,218.830 333.500 M150.485 336.013 C 150.218 336.440,150.001 337.017,150.002 337.295 C 150.004 337.573,150.277 337.278,150.610 336.640 C 151.303 335.311,151.211 334.850,150.485 336.013 M149.400 339.200 C 149.248 339.891,149.207 340.541,149.309 340.642 C 149.411 340.744,149.609 340.253,149.750 339.550 C 150.083 337.883,149.760 337.560,149.400 339.200 M241.632 342.120 C 241.549 343.991,237.946 348.170,235.756 348.933 C 235.230 349.117,234.800 349.418,234.800 349.603 C 234.800 350.236,237.000 348.836,239.020 346.918 C 241.057 344.985,242.257 342.881,241.872 341.920 C 241.740 341.593,241.651 341.667,241.632 342.120 M148.606 344.900 C 148.465 346.275,148.505 348.120,148.695 349.000 C 148.975 350.299,149.047 349.828,149.076 346.500 C 149.116 341.803,148.975 341.320,148.606 344.900 M159.694 346.600 C 159.676 347.920,159.914 349.720,160.224 350.600 C 160.773 352.163,160.780 352.167,160.531 350.800 C 160.391 350.030,160.152 348.230,160.001 346.800 L 159.726 344.200 159.694 346.600 M188.493 354.851 C 188.394 365.316,188.389 365.341,186.400 365.707 L 185.400 365.891 186.424 365.946 C 188.803 366.072,188.826 365.965,188.700 355.000 L 188.585 345.000 188.493 354.851 M236.252 352.774 C 237.103 353.917,238.453 355.606,239.251 356.527 C 240.049 357.447,241.039 358.759,241.451 359.442 C 241.863 360.125,242.786 361.176,243.500 361.778 C 244.215 362.379,244.800 363.110,244.800 363.402 C 244.800 363.694,245.528 364.713,246.417 365.666 L 248.034 367.400 241.519 367.510 C 235.745 367.608,234.947 367.543,234.502 366.934 C 234.226 366.556,234.000 366.425,234.000 366.644 C 234.000 367.806,235.096 368.000,241.680 368.000 C 248.974 368.000,249.117 367.945,247.089 365.913 C 246.368 365.191,245.554 364.059,245.281 363.398 C 245.008 362.737,244.279 361.856,243.661 361.441 C 243.044 361.026,242.122 359.902,241.614 358.943 C 241.105 357.984,240.541 357.200,240.360 357.200 C 240.179 357.200,239.047 355.868,237.843 354.240 C 236.639 352.612,235.440 351.148,235.179 350.987 C 234.918 350.826,235.401 351.630,236.252 352.774 M149.268 353.200 C 149.288 354.239,149.918 355.946,149.932 355.000 C 149.938 354.560,149.789 353.840,149.600 353.400 C 149.389 352.910,149.261 352.832,149.268 353.200 M160.800 353.058 C 160.800 353.663,162.345 356.719,162.790 356.994 C 163.008 357.129,162.714 356.285,162.137 355.119 C 160.960 352.745,160.800 352.498,160.800 353.058 M176.790 353.063 C 177.026 353.180,177.200 354.849,177.200 357.000 C 177.200 359.151,177.026 360.820,176.790 360.937 C 176.565 361.049,176.610 361.094,176.890 361.037 C 177.262 360.961,177.400 359.867,177.400 357.000 C 177.400 354.133,177.262 353.039,176.890 352.963 C 176.610 352.907,176.565 352.952,176.790 353.063 M223.642 353.246 C 224.215 353.456,224.897 354.095,225.157 354.666 C 225.417 355.236,225.733 355.600,225.859 355.475 C 226.330 355.003,224.341 352.800,223.473 352.832 C 222.679 352.860,222.695 352.898,223.642 353.246 M226.001 356.312 C 226.001 356.471,226.721 357.277,227.601 358.105 C 228.480 358.933,229.200 359.465,229.200 359.288 C 229.200 359.112,228.480 358.305,227.600 357.496 C 226.720 356.687,226.000 356.154,226.001 356.312 M150.008 356.509 C 149.996 356.947,151.969 359.959,153.287 361.514 C 153.899 362.237,154.400 362.664,154.400 362.463 C 154.400 362.262,154.110 361.857,153.755 361.562 C 153.400 361.268,152.413 359.941,151.563 358.613 C 150.713 357.286,150.013 356.339,150.008 356.509 M164.200 357.767 C 164.640 358.100,165.217 358.559,165.483 358.786 C 166.100 359.315,166.522 359.321,166.198 358.797 C 166.061 358.576,165.376 358.117,164.675 357.778 C 163.567 357.242,163.505 357.241,164.200 357.767 M169.600 360.600 C 170.370 360.897,171.360 361.141,171.800 361.143 C 172.240 361.145,171.790 360.891,170.800 360.579 C 168.539 359.867,167.733 359.881,169.600 360.600 M229.200 360.126 C 229.200 360.417,232.794 364.933,233.715 365.800 C 234.324 366.374,232.038 363.232,230.500 361.381 C 229.785 360.521,229.200 359.957,229.200 360.126 M157.776 365.413 C 158.204 365.736,158.770 366.000,159.036 366.000 C 159.301 366.000,160.302 366.448,161.259 366.995 C 162.217 367.543,163.450 367.972,164.000 367.949 C 164.799 367.916,164.839 367.872,164.200 367.733 C 163.520 367.585,160.936 366.450,158.305 365.145 C 157.223 364.608,156.917 364.763,157.776 365.413 M181.400 367.200 C 181.264 367.420,180.578 367.627,179.876 367.660 C 178.674 367.716,178.663 367.729,179.695 367.886 C 180.298 367.978,181.192 367.771,181.684 367.426 C 182.176 367.082,182.369 366.800,182.113 366.800 C 181.857 366.800,181.536 366.980,181.400 367.200 M165.600 368.400 C 165.930 368.613,166.560 368.788,167.000 368.788 C 167.662 368.788,167.697 368.721,167.200 368.400 C 166.870 368.187,166.240 368.012,165.800 368.012 C 165.138 368.012,165.103 368.079,165.600 368.400 M176.000 368.400 C 175.525 368.707,175.608 368.788,176.400 368.788 C 176.950 368.788,177.670 368.613,178.000 368.400 C 178.475 368.093,178.392 368.012,177.600 368.012 C 177.050 368.012,176.330 368.187,176.000 368.400 " stroke="none" fill="#848484" fill-rule="evenodd"></path></g></svg>